<svg version="1.1" id="Layer_1" xmlns="http://www.w3.org/2000/svg" xmlns:xlink="http://www.w3.org/1999/xlink" x="0px" y="0px"
	 width="100%" viewBox="0 0 500 500" enable-background="new 0 0 500 500" xml:space="preserve">
<path fill="#000000" opacity="1.000000" stroke="none" 
	d="
M261.000000,501.000000 
	C174.000015,501.000000 87.500038,501.000000 1.000046,501.000000 
	C1.000031,334.333405 1.000031,167.666794 1.000015,1.000136 
	C167.666565,1.000091 334.333130,1.000091 500.999756,1.000045 
	C500.999847,167.666519 500.999847,334.333038 500.999939,500.999786 
	C421.166656,501.000000 341.333344,501.000000 261.000000,501.000000 
M196.006882,384.999054 
	C196.006882,384.999054 195.938263,384.967377 195.989716,385.910370 
	C196.049042,394.590729 196.108368,403.271088 196.336472,412.816895 
	C207.266312,412.877289 218.196487,412.985901 229.125381,412.909668 
	C230.032944,412.903381 230.931793,411.647614 231.983047,410.056763 
	C232.045761,405.703583 232.108475,401.350372 232.968262,396.999298 
	C234.293167,397.061340 235.618057,397.123383 236.991791,398.069885 
	C237.327332,401.435822 237.662872,404.801727 238.457321,408.897339 
	C255.542923,408.931091 272.628754,409.001556 289.713684,408.908905 
	C290.758148,408.903259 291.795593,407.605682 292.977661,406.037628 
	C293.003845,403.390106 293.030060,400.742554 293.691406,397.791138 
	C294.623627,397.527557 295.543060,397.200256 296.490021,397.009796 
	C313.450897,393.598511 329.907532,388.486694 345.109863,380.236938 
	C364.457367,369.737823 381.394714,356.124695 395.538727,339.059052 
	C408.382538,323.562225 418.348969,306.485474 424.954926,287.527649 
	C432.840057,264.898865 436.380646,241.617538 434.030548,217.634552 
	C433.389557,211.093079 432.814087,204.499039 431.481140,198.080154 
	C427.467133,178.749649 420.512573,160.523193 410.030487,143.705917 
	C407.895660,140.280838 406.027344,136.689667 404.737762,132.799194 
	C424.953430,128.868195 445.149719,124.831749 465.404938,121.116341 
	C468.557800,120.538017 469.402863,119.388252 468.866302,116.585426 
	C466.914368,106.389572 464.974854,96.191299 462.995911,86.000687 
	C461.706085,79.358612 460.356171,72.728195 459.052917,66.191757 
	C455.526886,66.561119 452.490143,66.664146 449.540924,67.226181 
	C438.078308,69.410606 426.656769,71.810478 415.194763,73.998245 
	C402.341400,76.451569 389.472412,78.828148 376.587708,81.110870 
	C368.410919,82.559509 360.193054,83.776093 351.250305,84.970207 
	C350.751831,84.932182 350.157928,85.058472 349.768646,84.832413 
	C334.976562,76.242195 319.298004,70.247864 302.515472,66.501320 
	C286.341003,62.890522 270.133698,62.496769 253.785217,62.985352 
	C242.324356,63.327866 231.015030,64.735840 220.180527,68.860031 
	C208.733536,73.217369 196.976059,76.874916 185.861145,81.948662 
	C178.250427,85.422798 171.408630,90.651436 164.414307,95.378662 
	C160.439941,98.064796 156.491348,100.971138 153.163101,104.392998 
	C146.360901,111.386520 139.985489,118.795166 132.788773,126.242943 
	C127.051384,127.214722 121.297180,128.097412 115.580139,129.176926 
	C103.881485,131.385925 92.201889,133.695999 80.516220,135.973541 
	C73.342049,137.371780 66.171165,138.786865 58.536579,140.285080 
	C61.912933,158.669586 65.189644,176.511490 68.531677,194.709106 
	C73.147079,193.814362 77.345840,192.904663 81.578934,192.201660 
	C88.311462,191.083542 95.066879,190.103287 101.903854,189.884872 
	C100.292328,201.390945 97.930023,212.856308 97.303505,224.415771 
	C96.789406,233.901016 98.300301,243.500931 98.982994,253.045044 
	C100.259735,270.894257 105.866882,287.636444 113.292389,303.650574 
	C124.376518,327.555054 140.291458,348.031555 161.524033,363.729828 
	C172.001846,371.476593 183.818054,377.413086 195.168274,384.617828 
	C195.372253,384.884583 195.641357,385.034576 196.006882,384.999054 
z"/>
<path fill="#FF9500" opacity="1.000000" stroke="none" 
	d="
M293.056274,398.095032 
	C293.030060,400.742554 293.003845,403.390106 292.535583,406.663025 
	C290.338074,407.527161 288.583923,407.962524 286.826996,407.973969 
	C270.551086,408.080231 254.274673,408.113312 237.998413,408.167664 
	C237.662872,404.801727 237.327332,401.435822 237.351227,397.396027 
	C237.805267,395.567963 237.982498,394.413788 237.982697,393.259583 
	C237.995773,317.798248 237.996033,242.336929 237.981903,166.875595 
	C237.981674,165.615601 237.791672,164.355637 237.688339,163.072128 
	C236.692032,163.072128 236.009644,162.968307 235.368408,163.086960 
	C195.699478,170.427307 156.026199,177.744888 116.377831,185.194901 
	C111.454216,186.120056 106.664421,187.757385 101.812614,189.064728 
	C95.066879,190.103287 88.311462,191.083542 81.578934,192.201660 
	C77.345840,192.904663 73.147079,193.814362 68.531677,194.709106 
	C65.189644,176.511490 61.912933,158.669586 58.536579,140.285080 
	C66.171165,138.786865 73.342049,137.371780 80.516220,135.973541 
	C92.201889,133.695999 103.881485,131.385925 115.580139,129.176926 
	C121.297180,128.097412 127.051384,127.214722 133.578613,126.215836 
	C142.184570,124.793854 150.007507,123.436035 157.815582,121.997437 
	C185.787445,116.843742 213.756119,111.672836 241.722443,106.489204 
	C271.315674,101.004021 300.915436,95.552773 330.488251,89.959229 
	C337.705078,88.594200 344.827667,86.730919 351.993591,85.096733 
	C360.193054,83.776093 368.410919,82.559509 376.587708,81.110870 
	C389.472412,78.828148 402.341400,76.451569 415.194763,73.998245 
	C426.656769,71.810478 438.078308,69.410606 449.540924,67.226181 
	C452.490143,66.664146 455.526886,66.561119 459.052917,66.191757 
	C460.356171,72.728195 461.706085,79.358612 462.995911,86.000687 
	C464.974854,96.191299 466.914368,106.389572 468.866302,116.585426 
	C469.402863,119.388252 468.557800,120.538017 465.404938,121.116341 
	C445.149719,124.831749 424.953430,128.868195 404.019836,132.906921 
	C401.375214,133.018478 399.393860,132.726105 397.529968,133.070145 
	C364.346527,139.195145 331.204346,145.550125 297.976685,151.422043 
	C292.864899,152.325363 292.231445,154.427216 292.238159,158.853897 
	C292.356506,236.684341 292.318512,314.515015 292.354340,392.345642 
	C292.355225,394.262207 292.812073,396.178558 293.056274,398.095032 
z"/>
<path fill="#0149B3" opacity="1.000000" stroke="none" 
	d="
M293.373840,397.943085 
	C292.812073,396.178558 292.355225,394.262207 292.354340,392.345642 
	C292.318512,314.515015 292.356506,236.684341 292.238159,158.853897 
	C292.231445,154.427216 292.864899,152.325363 297.976685,151.422043 
	C331.204346,145.550125 364.346527,139.195145 397.529968,133.070145 
	C399.393860,132.726105 401.375214,133.018478 403.669006,133.094864 
	C406.027344,136.689667 407.895660,140.280838 410.030487,143.705917 
	C420.512573,160.523193 427.467133,178.749649 431.481140,198.080154 
	C432.814087,204.499039 433.389557,211.093079 434.030548,217.634552 
	C436.380646,241.617538 432.840057,264.898865 424.954926,287.527649 
	C418.348969,306.485474 408.382538,323.562225 395.538727,339.059052 
	C381.394714,356.124695 364.457367,369.737823 345.109863,380.236938 
	C329.907532,388.486694 313.450897,393.598511 296.490021,397.009796 
	C295.543060,397.200256 294.623627,397.527557 293.373840,397.943085 
z"/>
<path fill="#0148B4" opacity="1.000000" stroke="none" 
	d="
M101.858231,189.474792 
	C106.664421,187.757385 111.454216,186.120056 116.377831,185.194901 
	C156.026199,177.744888 195.699478,170.427307 235.368408,163.086960 
	C236.009644,162.968307 236.692032,163.072128 237.688339,163.072128 
	C237.791672,164.355637 237.981674,165.615601 237.981903,166.875595 
	C237.996033,242.336929 237.995773,317.798248 237.982697,393.259583 
	C237.982498,394.413788 237.805267,395.567963 237.326813,396.953796 
	C235.618057,397.123383 234.293167,397.061340 232.470032,396.538574 
	C231.928223,393.913849 231.846695,391.749847 231.846497,389.585815 
	C231.839859,318.443298 231.841003,247.300781 231.841003,176.158264 
	C231.840988,174.207336 231.841019,172.256393 231.841019,169.591858 
	C228.631760,170.100586 226.016373,170.281998 223.533035,170.952515 
	C216.055313,172.971527 208.677307,175.376007 201.162888,177.236298 
	C197.230133,178.209900 196.128693,180.043961 196.138229,184.110138 
	C196.289856,248.754517 196.246613,313.399353 196.237015,378.044067 
	C196.236725,380.039001 196.119446,382.033966 195.795303,384.031555 
	C195.365494,384.079041 195.197067,384.123840 195.028656,384.168671 
	C183.818054,377.413086 172.001846,371.476593 161.524033,363.729828 
	C140.291458,348.031555 124.376518,327.555054 113.292389,303.650574 
	C105.866882,287.636444 100.259735,270.894257 98.982994,253.045044 
	C98.300301,243.500931 96.789406,233.901016 97.303505,224.415771 
	C97.930023,212.856308 100.292328,201.390945 101.858231,189.474792 
z"/>
<path fill="#FB9402" opacity="1.000000" stroke="none" 
	d="
M196.056702,384.028900 
	C196.119446,382.033966 196.236725,380.039001 196.237015,378.044067 
	C196.246613,313.399353 196.289856,248.754517 196.138229,184.110138 
	C196.128693,180.043961 197.230133,178.209900 201.162888,177.236298 
	C208.677307,175.376007 216.055313,172.971527 223.533035,170.952515 
	C226.016373,170.281998 228.631760,170.100586 231.841019,169.591858 
	C231.841019,172.256393 231.840988,174.207336 231.841003,176.158264 
	C231.841003,247.300781 231.839859,318.443298 231.846497,389.585815 
	C231.846695,391.749847 231.928223,393.913849 232.071503,396.537537 
	C232.108475,401.350372 232.045761,405.703583 231.539978,410.706909 
	C219.754929,411.518585 208.412933,411.680115 197.050552,411.383545 
	C197.020325,406.136749 197.142960,401.342957 196.959061,396.560944 
	C196.810165,392.689087 196.292404,388.831360 195.938263,384.967377 
	C195.938263,384.967377 196.006882,384.999054 196.029205,384.775085 
	C196.053268,384.377045 196.054977,384.202972 196.056702,384.028900 
z"/>
<path fill="#0149B4" opacity="1.000000" stroke="none" 
	d="
M351.621948,85.033463 
	C344.827667,86.730919 337.705078,88.594200 330.488251,89.959229 
	C300.915436,95.552773 271.315674,101.004021 241.722443,106.489204 
	C213.756119,111.672836 185.787445,116.843742 157.815582,121.997437 
	C150.007507,123.436035 142.184570,124.793854 133.901367,126.110779 
	C139.985489,118.795166 146.360901,111.386520 153.163101,104.392998 
	C156.491348,100.971138 160.439941,98.064796 164.414307,95.378662 
	C171.408630,90.651436 178.250427,85.422798 185.861145,81.948662 
	C196.976059,76.874916 208.733536,73.217369 220.180527,68.860031 
	C231.015030,64.735840 242.324356,63.327866 253.785217,62.985352 
	C270.133698,62.496769 286.341003,62.890522 302.515472,66.501320 
	C319.298004,70.247864 334.976562,76.242195 349.768646,84.832413 
	C350.157928,85.058472 350.751831,84.932182 351.621948,85.033463 
z"/>
<path fill="#FFE7BC" opacity="1.000000" stroke="none" 
	d="
M238.227859,408.532501 
	C254.274673,408.113312 270.551086,408.080231 286.826996,407.973969 
	C288.583923,407.962524 290.338074,407.527161 292.464905,407.098846 
	C291.795593,407.605682 290.758148,408.903259 289.713684,408.908905 
	C272.628754,409.001556 255.542923,408.931091 238.227859,408.532501 
z"/>
<path fill="#FFFFEC" opacity="1.000000" stroke="none" 
	d="
M197.070953,411.841614 
	C208.412933,411.680115 219.754929,411.518585 231.465805,411.164734 
	C230.931793,411.647614 230.032944,412.903381 229.125381,412.909668 
	C218.196487,412.985901 207.266312,412.877289 196.480728,412.380127 
	C196.624985,411.943359 197.070953,411.841614 197.070953,411.841614 
z"/>
<path fill="#FEBD4B" opacity="1.000000" stroke="none" 
	d="
M197.050552,411.383545 
	C197.070953,411.841614 196.624985,411.943359 196.396332,411.947388 
	C196.108368,403.271088 196.049042,394.590729 195.963989,385.438873 
	C196.292404,388.831360 196.810165,392.689087 196.959061,396.560944 
	C197.142960,401.342957 197.020325,406.136749 197.050552,411.383545 
z"/>
<path fill="#FEBD4B" opacity="1.000000" stroke="none" 
	d="
M195.795303,384.031555 
	C196.054977,384.202972 196.053268,384.377045 196.013550,384.809479 
	C195.641357,385.034576 195.372253,384.884583 195.098465,384.393250 
	C195.197067,384.123840 195.365494,384.079041 195.795303,384.031555 
z"/>
</svg>